HIERARCHY
ROOT SpineBase
{
  OFFSET 0.000000 0.000000 0.000000
  CHANNELS 6 Xposition Yposition Zposition Zrotation Xrotation Yrotation
  JOINT SpineMid
  {
    OFFSET -0.000000 34.154639 0.000000
    CHANNELS 3 Zrotation Xrotation Yrotation
    JOINT SpineShoulder
    {
      OFFSET 0.033212 25.294980 -0.903195
      CHANNELS 3 Zrotation Xrotation Yrotation
      JOINT Neck
      {
        OFFSET 0.063746 8.353841 -0.647300
        CHANNELS 3 Zrotation Xrotation Yrotation
        JOINT Head
        {
          OFFSET 2.156398 10.035021 5.424263
          CHANNELS 3 Zrotation Xrotation Yrotation
          End Site
          {
            OFFSET 0 0 0
          }
        }
      }
      JOINT ShoulderLeft
      {
        OFFSET -7.464139 -5.344244 -6.536259
        CHANNELS 3 Zrotation Xrotation Yrotation
        JOINT ElbowLeft
        {
          OFFSET -18.545902 -26.920997 16.884481
          CHANNELS 3 Zrotation Xrotation Yrotation
          JOINT WristLeft
          {
            OFFSET -3.571653 -31.938297 5.766395
            CHANNELS 3 Zrotation Xrotation Yrotation
            JOINT HandLeft
            {
              OFFSET -1.192707 -3.861718 2.234883
              CHANNELS 3 Zrotation Xrotation Yrotation
              JOINT HandTipLeft
              {
                OFFSET 0.869210 -1.858639 -3.194560
                CHANNELS 3 Zrotation Xrotation Yrotation
                End Site
                {
                  OFFSET 0 0 0
                }
              }
              JOINT ThumbLeft
              {
                OFFSET 0.309872 2.149702 -1.281213
                CHANNELS 3 Zrotation Xrotation Yrotation
                End Site
                {
                  OFFSET 0 0 0
                }
              }
            }
          }
        }
      }
      JOINT ShoulderRight
      {
        OFFSET 9.569545 -6.711546 -13.248545
        CHANNELS 3 Zrotation Xrotation Yrotation
        JOINT ElbowRight
        {
          OFFSET 4.334799 -32.290317 -0.384761
          CHANNELS 3 Zrotation Xrotation Yrotation
          JOINT WristRight
          {
            OFFSET 4.732669 -21.333421 3.367100
            CHANNELS 3 Zrotation Xrotation Yrotation
            JOINT HandRight
            {
              OFFSET -1.472459 -2.703331 0.431229
              CHANNELS 3 Zrotation Xrotation Yrotation
              JOINT HandTipRight
              {
                OFFSET 0.233317 -4.775140 0.812025
                CHANNELS 3 Zrotation Xrotation Yrotation
                End Site
                {
                  OFFSET 0 0 0
                }
              }
              JOINT ThumbRight
              {
                OFFSET -3.079199 3.111959 -1.209963
                CHANNELS 3 Zrotation Xrotation Yrotation
                End Site
                {
                  OFFSET 0 0 0
                }
              }
            }
          }
        }
      }
    }
  }
  JOINT HipLeft
  {
    OFFSET -5.861834 0.974224 -2.042122
    CHANNELS 3 Zrotation Xrotation Yrotation
    JOINT KneeLeft
    {
      OFFSET -5.089909 -35.378032 4.337099
      CHANNELS 3 Zrotation Xrotation Yrotation
      JOINT AnkleLeft
      {
        OFFSET 1.413514 -35.679305 1.822265
        CHANNELS 3 Zrotation Xrotation Yrotation
        JOINT FootLeft
        {
          OFFSET -2.430037 -1.969181 -11.346795
          CHANNELS 3 Zrotation Xrotation Yrotation
          End Site
          {
            OFFSET 0 0 0
          }
        }
      }
    }
  }
  JOINT HipRight
  {
    OFFSET 6.436090 1.747748 -5.214026
    CHANNELS 3 Zrotation Xrotation Yrotation
    JOINT KneeRight
    {
      OFFSET -2.331872 -34.568496 -3.146652
      CHANNELS 3 Zrotation Xrotation Yrotation
      JOINT AnkleRight
      {
        OFFSET -2.057927 -32.041632 -1.285878
        CHANNELS 3 Zrotation Xrotation Yrotation
        JOINT FootRight
        {
          OFFSET -5.320022 -4.725123 3.952923
          CHANNELS 3 Zrotation Xrotation Yrotation
          End Site
          {
            OFFSET 0 0 0
          }
        }
      }
    }
  }
}
MOTION
Frames: 5
Frame Time: 0.033333
-21.008842 75.184955 247.672169 0.000000 0.000000 14.462633 -0.000000 0.000000 -14.462633 -0.000000 0.000000 0.000000 -0.000000 0.000000 0.000000 0.000000 0.000000 0.000000 -0.000000 0.000000 0.000000 -0.000000 0.000000 0.000000 -0.000000 0.000000 0.000000 -0.000000 0.000000 0.000000 0.000000 0.000000 0.000000 0.000000 0.000000 0.000000 -0.000000 0.000000 0.000000 -0.000000 0.000000 0.000000 -0.000000 0.000000 0.000000 -0.000000 0.000000 0.000000 0.000000 0.000000 0.000000 0.000000 0.000000 0.000000 -0.000000 0.000000 -14.462633 -0.000000 0.000000 0.000000 -0.000000 0.000000 0.000000 0.000000 0.000000 0.000000 -0.000000 0.000000 -14.462633 -0.000000 0.000000 0.000000 -0.000000 0.000000 0.000000 0.000000 0.000000 0.000000
-21.089447 75.369548 247.687450 0.017971 0.040271 15.079579 -0.027829 -0.034209 -15.079594 -0.000000 0.000000 0.000000 1.083900 -0.555298 -0.463475 0.000000 0.000000 0.000000 11.460573 7.520064 1.425477 -10.039334 -6.002224 -2.551749 0.229947 -2.623393 1.407871 -7.723134 -14.624161 -0.006332 0.000000 0.000000 0.000000 0.000000 0.000000 0.000000 1.019717 0.638042 0.067740 -2.511324 0.237720 -0.126439 9.373003 -6.749607 5.191430 -4.481270 13.621966 -3.944784 0.000000 0.000000 0.000000 0.000000 0.000000 0.000000 -0.027829 -0.034209 -15.079594 -0.000000 0.000000 0.000000 2.557924 -4.996446 -11.692727 0.000000 0.000000 0.000000 -0.027829 -0.034209 -15.079594 -0.000000 0.000000 0.000000 -0.000000 0.000000 0.000000 0.000000 0.000000 0.000000
-21.164035 75.543658 247.709310 0.034697 0.077910 15.686814 -0.054470 -0.065627 -15.686868 -0.000000 0.000000 0.000000 2.045144 -1.094408 -0.858579 0.000000 0.000000 0.000000 26.533528 17.408797 0.974768 -24.068665 -13.380579 -7.569165 -0.177982 -4.224482 2.238930 -13.566797 -25.727901 -1.807477 0.000000 0.000000 0.000000 0.000000 0.000000 0.000000 1.986017 1.235508 0.120488 -4.692675 0.259852 -0.285601 16.014977 -10.389418 8.956360 -6.483480 22.511311 -6.620372 0.000000 0.000000 0.000000 0.000000 0.000000 0.000000 -0.054470 -0.065627 -15.686868 -0.000000 0.000000 0.000000 4.129466 -11.125458 -24.063096 0.000000 0.000000 0.000000 -0.054470 -0.065627 -15.686868 -0.000000 0.000000 0.000000 -0.858137 -0.374233 -0.296055 0.000000 0.000000 0.000000
-21.232604 75.707282 247.737748 0.050158 0.112874 16.283358 -0.079795 -0.094283 -16.283473 -0.000000 0.000000 0.000000 2.889531 -1.616241 -1.189595 0.000000 0.000000 0.000000 43.827941 27.359636 -2.670181 -40.231697 -19.852937 -14.937678 -1.068935 -4.979180 2.585692 -17.969128 -33.596415 -4.705298 0.000000 0.000000 0.000000 0.000000 0.000000 0.000000 2.858255 1.765184 0.158319 -6.529933 0.110874 -0.470547 20.644698 -12.182781 11.431313 -7.563672 27.993622 -8.408166 0.000000 0.000000 0.000000 0.000000 0.000000 0.000000 -0.079795 -0.094283 -16.283473 -0.000000 0.000000 0.000000 4.332298 -17.303146 -35.391822 0.000000 0.000000 0.000000 -0.079795 -0.094283 -16.283473 -0.000000 0.000000 0.000000 -1.082600 -0.434586 -0.414776 0.000000 0.000000 0.000000
-21.295154 75.860423 247.772766 0.064337 0.145125 16.868269 -0.103680 -0.120212 -16.868459 -0.000000 0.000000 0.000000 3.622329 -2.120257 -1.460373 0.000000 0.000000 0.000000 60.208887 34.528172 -8.640508 -54.511553 -23.765614 -22.331411 -2.308636 -4.954822 2.516023 -21.289073 -39.263226 -8.227940 0.000000 0.000000 0.000000 0.000000 0.000000 0.000000 3.594092 2.199245 0.182613 -8.001850 -0.171141 -0.669921 23.787994 -12.796159 12.853236 -8.472776 31.005659 -9.403200 0.000000 0.000000 0.000000 0.000000 0.000000 0.000000 0.379100 0.571712 -16.953859 -0.260063 -0.802621 0.081676 3.492809 -22.591824 -44.363040 0.000000 0.000000 0.000000 -0.103680 -0.120212 -16.868459 -0.000000 0.000000 0.000000 -1.170887 -0.411535 -0.512979 0.000000 0.000000 0.000000
